<?xml version="1.0" standalone="no"?><svg xmlns="http://www.w3.org/2000/svg" viewBox="0 0 1440 320"><path fill="#0196ff" fill-opacity="0.75" d="M0,288L18.5,245.3C36.9,203,74,117,111,117.3C147.7,117,185,203,222,208C258.5,213,295,139,332,117.3C369.2,96,406,128,443,154.7C480,181,517,203,554,202.7C590.8,203,628,181,665,160C701.5,139,738,117,775,138.7C812.3,160,849,224,886,208C923.1,192,960,96,997,96C1033.8,96,1071,192,1108,197.3C1144.6,203,1182,117,1218,106.7C1255.4,96,1292,160,1329,176C1366.2,192,1403,160,1422,144L1440,128L1440,320L1421.5,320C1403.1,320,1366,320,1329,320C1292.3,320,1255,320,1218,320C1181.5,320,1145,320,1108,320C1070.8,320,1034,320,997,320C960,320,923,320,886,320C849.2,320,812,320,775,320C738.5,320,702,320,665,320C627.7,320,591,320,554,320C516.9,320,480,320,443,320C406.2,320,369,320,332,320C295.4,320,258,320,222,320C184.6,320,148,320,111,320C73.8,320,37,320,18,320L0,320Z"></path></svg>